<?xml version="1.0" encoding="UTF-8"?><svg id="Layer_2" xmlns="http://www.w3.org/2000/svg" viewBox="0 0 140.87 254.92"><defs><style>.cls-1{fill:#f5f5f5;}</style></defs><g id="Layer_1-2"><path class="cls-1" d="M110.43,0v9.82l8.57,1.83v2.38c0,1.94.25,3.81.73,5.59.49,1.79,1.22,3.38,2.19,4.77.97,1.38,2.2,2.47,3.69,3.28,1.48.8,3.23,1.2,5.23,1.2,1.69,0,3.25-.43,4.7-1.29,1.44-.86,2.6-2.09,3.49-3.69.89-1.6,1.33-3.53,1.33-5.79V6.39L110.43,0ZM132.47,16c0,.83-.25,1.49-.75,1.97-.5.49-1.08.73-1.74.73s-1.17-.14-1.63-.43c-.46-.28-.81-.69-1.07-1.22-.26-.53-.38-1.16-.38-1.91v-1.8l5.57,1.19v1.47Z"/><path class="cls-1" d="M110.43,28.44l29.93,6.39v9.82l-22.04-4.72v13.46l-7.89-1.67v-23.29Z"/><path class="cls-1" d="M122.69,68.54l-6.99-2.23v5.23l6.99.68.52.02v-3.5l-.52-.2Z"/><polygon class="cls-1" points="140.36 67.29 140.36 81.1 110.43 80.93 110.43 71.02 115.7 71.54 122.69 72.22 123.21 72.24 133.2 72.61 123.21 68.74 122.69 68.54 115.7 66.31 110.43 64.63 110.43 54.77 140.36 67.29"/><path class="cls-1" d="M110.43,90.83l22.04,4.68v-7.81l7.89,1.72v25.43l-7.89-1.72v-7.8l-22.04-4.68v-9.82Z"/><path class="cls-1" d="M109.91,124.8c0-2.26.51-4.22,1.54-5.87s2.44-2.94,4.22-3.84,3.8-1.35,6.03-1.35c2.57,0,5.02.33,7.33.99,2.32.66,4.36,1.62,6.13,2.89,1.77,1.27,3.17,2.84,4.18,4.72,1.02,1.87,1.52,4.04,1.52,6.5,0,2.26-.51,4.22-1.52,5.88s-2.39,2.94-4.14,3.84c-1.74.9-3.74,1.35-6,1.35-2.6,0-5.06-.33-7.37-.99-2.32-.66-4.37-1.62-6.16-2.89-1.79-1.27-3.19-2.85-4.22-4.72-1.03-1.87-1.54-4.04-1.54-6.5ZM117.8,125.49c0,.69.28,1.33.83,1.93s1.33,1.13,2.32,1.59c.98.46,2.14.81,3.47,1.07s2.75.38,4.27.38c1.43,0,2.5-.21,3.21-.64s1.07-.99,1.07-1.67-.28-1.33-.83-1.93-1.33-1.13-2.32-1.59c-.98-.46-2.14-.81-3.47-1.07s-2.75-.39-4.27-.39c-.94,0-1.73.1-2.36.3-.63.2-1.11.47-1.43.82s-.49.74-.49,1.2Z"/><path class="cls-1" d="M110.43,139.3l29.93,6.39v10.68l-18.44,2.02,9.86,1.2,8.58,1.84v8.66l-29.93-6.39v-11.06l17.71-1.89-9.09-.94-8.62-1.84v-8.66Z"/><polygon class="cls-1" points="140.36 174.89 140.36 196.55 132.47 194.83 132.47 188.95 118.32 185.92 118.32 191.83 110.43 190.16 110.43 168.5 118.32 170.18 118.32 176.1 132.47 179.13 132.47 173.18 140.36 174.89"/><path class="cls-1" d="M109.91,208.64c0-2.43.46-4.55,1.39-6.35s2.24-3.18,3.92-4.14c1.69-.96,3.66-1.39,5.92-1.31v9.52c-.97-.12-1.77.07-2.4.55-.63.49-.94,1.23-.94,2.23,0,.46.08.87.23,1.22.16.36.39.65.69.86.3.22.64.32,1.01.32.49,0,.89-.22,1.23-.66.33-.44.62-1.03.88-1.76.25-.73.53-1.53.81-2.4s.63-1.75,1.03-2.64.9-1.69,1.5-2.42,1.34-1.32,2.23-1.76,1.96-.66,3.22-.66c2.03,0,3.81.53,5.34,1.61,1.53,1.07,2.73,2.58,3.6,4.52.87,1.94,1.31,4.23,1.31,6.86,0,2.4-.42,4.5-1.26,6.28s-2.03,3.16-3.56,4.12c-1.53.96-3.34,1.38-5.42,1.26v-9.48c.8,0,1.39-.25,1.78-.75.38-.5.58-1.1.58-1.78,0-.43-.06-.82-.17-1.16-.11-.34-.29-.61-.53-.82-.24-.2-.55-.3-.92-.3-.43,0-.79.22-1.07.67s-.55,1.04-.79,1.78-.49,1.55-.75,2.42-.58,1.75-.97,2.62c-.38.87-.87,1.68-1.46,2.42s-1.31,1.34-2.17,1.78-1.92.66-3.17.66c-2.23,0-4.17-.55-5.83-1.67-1.66-1.11-2.95-2.67-3.86-4.67-.91-2-1.37-4.33-1.37-6.99Z"/><polygon class="cls-1" points="136.76 237.55 128.95 234.97 135.51 240.16 140.36 244.28 140.36 254.92 128.49 243.57 110.43 248.61 110.43 238.23 120.42 235.85 118.02 233.56 110.43 231.93 110.43 222.11 140.36 228.5 140.36 238.32 136.76 237.55"/><path class="cls-1" d="M37.16,6.39v11.71c0,2.26.44,4.19,1.33,5.79.89,1.6,2.05,2.83,3.49,3.69,1.45.86,3.02,1.29,4.7,1.29,2,0,3.75-.4,5.23-1.2,1.49-.81,2.72-1.9,3.69-3.28.97-1.39,1.7-2.98,2.19-4.77.49-1.78.73-3.65.73-5.59v-2.38l8.58-1.83V0l-29.94,6.39ZM50.63,15.14c0,.75-.13,1.38-.39,1.91-.26.53-.61.94-1.07,1.22-.46.29-1,.43-1.63.43s-1.24-.24-1.74-.73c-.5-.48-.75-1.14-.75-1.97v-1.47l5.58-1.19v1.8Z"/><path class="cls-1" d="M67.1,28.44l-29.93,6.39v9.82l22.04-4.72v13.46l7.89-1.67v-23.29Z"/><path class="cls-1" d="M67.1,64.63v-9.86l-29.94,12.52v13.81l29.94-.17v-9.91l-5.28.52v-5.23l5.28-1.68ZM54.31,68.74v3.5l-9.99.37,9.99-3.87Z"/><path class="cls-1" d="M67.1,90.83l-22.04,4.68v-7.81l-7.89,1.72v25.43l7.89-1.72v-7.8l22.04-4.68v-9.82Z"/><path class="cls-1" d="M67.61,124.8c0-2.26-.51-4.22-1.54-5.87s-2.44-2.94-4.22-3.84-3.8-1.35-6.03-1.35c-2.57,0-5.02.33-7.33.99-2.32.66-4.36,1.62-6.13,2.89-1.77,1.27-3.17,2.84-4.18,4.72-1.02,1.87-1.52,4.04-1.52,6.5,0,2.26.51,4.22,1.52,5.88s2.39,2.94,4.14,3.84c1.74.9,3.74,1.35,6,1.35,2.6,0,5.06-.33,7.37-.99,2.32-.66,4.37-1.62,6.16-2.89,1.79-1.27,3.19-2.85,4.22-4.72,1.03-1.87,1.54-4.04,1.54-6.5ZM59.72,125.49c0,.69-.28,1.33-.83,1.93s-1.33,1.13-2.32,1.59c-.98.46-2.14.81-3.47,1.07s-2.75.38-4.27.38c-1.43,0-2.5-.21-3.21-.64s-1.07-.99-1.07-1.67.28-1.33.83-1.93,1.33-1.13,2.32-1.59c.98-.46,2.14-.81,3.47-1.07s2.75-.39,4.27-.39c.94,0,1.73.1,2.36.3.63.2,1.11.47,1.43.82s.49.74.49,1.2Z"/><path class="cls-1" d="M67.1,139.3l-29.93,6.39v10.68l18.44,2.02-9.86,1.2-8.58,1.84v8.66l29.93-6.39v-11.06l-17.71-1.89,9.09-.94,8.62-1.84v-8.66Z"/><polygon class="cls-1" points="67.1 168.5 67.1 190.16 59.2 191.83 59.2 185.93 45.05 188.95 45.05 194.83 37.16 196.55 37.16 174.89 45.05 173.18 45.05 179.13 59.2 176.11 59.2 170.18 67.1 168.5"/><path class="cls-1" d="M67.61,208.64c0-2.43-.46-4.55-1.39-6.35s-2.24-3.18-3.92-4.14c-1.69-.96-3.66-1.39-5.92-1.31v9.52c.97-.12,1.77.07,2.4.55.63.49.94,1.23.94,2.23,0,.46-.08.87-.23,1.22-.16.36-.39.65-.69.86-.3.22-.64.32-1.01.32-.49,0-.89-.22-1.23-.66-.33-.44-.62-1.03-.88-1.76-.25-.73-.53-1.53-.81-2.4s-.63-1.75-1.03-2.64-.9-1.69-1.5-2.42-1.34-1.32-2.23-1.76-1.96-.66-3.22-.66c-2.03,0-3.81.53-5.34,1.61-1.53,1.07-2.73,2.58-3.6,4.52-.87,1.94-1.31,4.23-1.31,6.86,0,2.4.42,4.5,1.26,6.28s2.03,3.16,3.56,4.12c1.53.96,3.34,1.38,5.42,1.26v-9.48c-.8,0-1.39-.25-1.78-.75-.38-.5-.58-1.1-.58-1.78,0-.43.06-.82.17-1.16.11-.34.29-.61.53-.82.24-.2.55-.3.92-.3.43,0,.79.22,1.07.67s.55,1.04.79,1.78.49,1.55.75,2.42.58,1.75.97,2.62c.38.87.87,1.68,1.46,2.42s1.31,1.34,2.17,1.78,1.92.66,3.17.66c2.23,0,4.17-.55,5.83-1.67,1.66-1.11,2.95-2.67,3.86-4.67.91-2,1.37-4.33,1.37-6.99Z"/><polygon class="cls-1" points="59.5 233.56 57.1 235.85 67.1 238.23 67.1 248.61 49.03 243.57 37.16 254.92 37.16 244.28 42.01 240.16 48.57 234.97 40.76 237.55 37.16 238.32 37.16 228.5 67.1 222.11 67.1 231.93 59.5 233.56"/><path class="cls-1" d="M102.4,231.03c-.89-1.6-2.05-2.83-3.5-3.69-1.44-.86-3.01-1.29-4.69-1.29-2,0-3.75.4-5.23,1.2-1.49.81-2.72,1.9-3.69,3.28-.97,1.39-1.7,2.98-2.19,4.77-.49,1.78-.73,3.65-.73,5.59v2.38l-8.58,1.83v9.82l29.94-6.39v-11.71c0-2.26-.45-4.19-1.33-5.79ZM90.26,241.58v-1.8c0-.75.13-1.38.39-1.91.26-.53.61-.94,1.07-1.22.46-.29,1-.43,1.63-.43s1.24.24,1.74.73c.5.48.75,1.14.75,1.97v1.47l-5.58,1.19Z"/><path class="cls-1" d="M73.79,226.48l29.93-6.39v-9.82l-22.04,4.72v-13.46l-7.89,1.67v23.29Z"/><path class="cls-1" d="M73.79,173.99v9.91l5.28-.52v5.23l-5.28,1.68v9.86l29.94-12.52v-13.81l-29.94.17ZM86.57,186.19v-3.51l10-.37-10,3.88Z"/><path class="cls-1" d="M73.79,164.09l22.04-4.68v7.81l7.89-1.72v-25.43l-7.89,1.72v7.8l-22.04,4.68v9.82Z"/><path class="cls-1" d="M73.28,130.12c0,2.26.51,4.22,1.54,5.87s2.44,2.94,4.22,3.84,3.8,1.35,6.03,1.35c2.57,0,5.02-.33,7.33-.99,2.32-.66,4.36-1.62,6.13-2.89,1.77-1.27,3.17-2.84,4.18-4.72,1.02-1.87,1.52-4.04,1.52-6.5,0-2.26-.51-4.22-1.52-5.88s-2.39-2.94-4.14-3.84c-1.74-.9-3.74-1.35-6-1.35-2.6,0-5.06.33-7.37.99-2.32.66-4.37,1.62-6.16,2.89-1.79,1.27-3.19,2.85-4.22,4.72-1.03,1.87-1.54,4.04-1.54,6.5ZM81.17,129.43c0-.69.28-1.33.83-1.93s1.33-1.13,2.32-1.59c.98-.46,2.14-.81,3.47-1.07s2.75-.38,4.27-.38c1.43,0,2.5.21,3.21.64s1.07.99,1.07,1.67-.28,1.33-.83,1.93-1.33,1.13-2.32,1.59c-.98.46-2.14.81-3.47,1.07s-2.75.39-4.27.39c-.94,0-1.73-.1-2.36-.3-.63-.2-1.11-.47-1.43-.82s-.49-.74-.49-1.2Z"/><path class="cls-1" d="M73.79,115.62l29.93-6.39v-10.68l-18.44-2.02,9.86-1.2,8.58-1.84v-8.66l-29.93,6.39v11.06l17.71,1.89-9.09.94-8.62,1.84v8.66Z"/><polygon class="cls-1" points="103.73 58.37 103.73 80.03 95.84 81.74 95.84 75.79 81.68 78.82 81.68 84.74 73.79 86.42 73.79 64.76 81.68 63.09 81.68 69 95.84 65.97 95.84 60.09 103.73 58.37"/><path class="cls-1" d="M73.28,46.28c0,2.43.46,4.55,1.39,6.35s2.24,3.18,3.92,4.14c1.69.96,3.66,1.39,5.92,1.31v-9.52c-.97.12-1.77-.07-2.4-.55-.63-.49-.94-1.23-.94-2.23,0-.46.08-.87.23-1.22.16-.36.39-.65.69-.86.3-.22.64-.32,1.01-.32.49,0,.89.22,1.23.66.33.44.62,1.03.88,1.76.25.73.53,1.53.81,2.4s.63,1.75,1.03,2.64.9,1.69,1.5,2.42,1.34,1.32,2.23,1.76,1.96.66,3.22.66c2.03,0,3.81-.53,5.34-1.61,1.53-1.07,2.73-2.58,3.6-4.52.87-1.94,1.31-4.23,1.31-6.86,0-2.4-.42-4.5-1.26-6.28s-2.03-3.16-3.56-4.12c-1.53-.96-3.34-1.38-5.42-1.26v9.48c.8,0,1.39.25,1.78.75.38.5.58,1.1.58,1.78,0,.43-.06.82-.17,1.16-.11.34-.29.61-.53.82-.24.2-.55.3-.92.3-.43,0-.79-.22-1.07-.67s-.55-1.04-.79-1.78-.49-1.55-.75-2.42-.58-1.75-.97-2.62c-.38-.87-.87-1.68-1.46-2.42s-1.31-1.34-2.17-1.78-1.92-.66-3.17-.66c-2.23,0-4.17.55-5.83,1.67-1.66,1.11-2.95,2.67-3.86,4.67-.91,2-1.37,4.33-1.37,6.99Z"/><polygon class="cls-1" points="98.88 14.76 92.32 19.95 100.13 17.37 103.73 16.6 103.73 26.42 73.79 32.81 73.79 22.99 81.38 21.36 83.78 19.07 73.79 16.69 73.79 6.31 91.86 11.35 103.73 0 103.73 10.64 98.88 14.76"/><path class="cls-1" d="M21.87,243.27v-2.38c0-1.94-.24-3.81-.73-5.59-.49-1.79-1.22-3.38-2.19-4.77-.97-1.38-2.2-2.47-3.68-3.28-1.49-.8-3.24-1.2-5.24-1.2-1.68,0-3.25.43-4.69,1.29-1.45.86-2.61,2.09-3.5,3.69-.88,1.6-1.33,3.53-1.33,5.79v11.71l29.94,6.39v-9.82l-8.58-1.83ZM8.4,238.92c0-.83.26-1.49.75-1.97.5-.49,1.08-.73,1.74-.73s1.17.14,1.63.43c.46.28.82.69,1.07,1.22.26.53.39,1.16.39,1.91v1.8l-5.58-1.19v-1.47Z"/><path class="cls-1" d="M30.45,226.48l-29.93-6.39v-9.82l22.04,4.72v-13.46l7.89,1.67v23.29Z"/><path class="cls-1" d="M30.45,183.9v-9.91l-29.94-.17v13.81l29.94,12.52v-9.86l-5.28-1.68v-5.23l5.28.52ZM17.67,182.68v3.51l-10-3.88,10,.37Z"/><path class="cls-1" d="M30.45,164.09l-22.04-4.68v7.81l-7.89-1.72v-25.43l7.89,1.72v7.8l22.04,4.68v9.82Z"/><path class="cls-1" d="M30.96,130.12c0,2.26-.51,4.22-1.54,5.87s-2.44,2.94-4.22,3.84-3.8,1.35-6.03,1.35c-2.57,0-5.02-.33-7.33-.99-2.32-.66-4.36-1.62-6.13-2.89-1.77-1.27-3.17-2.84-4.18-4.72-1.02-1.87-1.52-4.04-1.52-6.5,0-2.26.51-4.22,1.52-5.88s2.39-2.94,4.14-3.84c1.74-.9,3.74-1.35,6-1.35,2.6,0,5.06.33,7.37.99,2.32.66,4.37,1.62,6.16,2.89,1.79,1.27,3.19,2.85,4.22,4.72,1.03,1.87,1.54,4.04,1.54,6.5ZM23.07,129.43c0-.69-.28-1.33-.83-1.93s-1.33-1.13-2.32-1.59c-.98-.46-2.14-.81-3.47-1.07s-2.75-.38-4.27-.38c-1.43,0-2.5.21-3.21.64s-1.07.99-1.07,1.67.28,1.33.83,1.93,1.33,1.13,2.32,1.59c.98.46,2.14.81,3.47,1.07s2.75.39,4.27.39c.94,0,1.73-.1,2.36-.3.63-.2,1.11-.47,1.43-.82s.49-.74.49-1.2Z"/><path class="cls-1" d="M30.45,115.62L.51,109.23v-10.68l18.44-2.02-9.86-1.2-8.58-1.84v-8.66l29.93,6.39v11.06l-17.71,1.89,9.09.94,8.62,1.84v8.66Z"/><polygon class="cls-1" points="30.45 64.76 30.45 86.42 22.56 84.74 22.56 78.82 8.4 75.79 8.4 81.74 .51 80.03 .51 58.37 8.4 60.09 8.4 65.97 22.56 69 22.56 63.09 30.45 64.76"/><path class="cls-1" d="M30.96,46.28c0,2.43-.46,4.55-1.39,6.35s-2.24,3.18-3.92,4.14c-1.69.96-3.66,1.39-5.92,1.31v-9.52c.97.12,1.77-.07,2.4-.55.63-.49.94-1.23.94-2.23,0-.46-.08-.87-.23-1.22-.16-.36-.39-.65-.69-.86-.3-.22-.64-.32-1.01-.32-.49,0-.89.22-1.23.66-.33.44-.62,1.03-.88,1.76-.25.73-.53,1.53-.81,2.4s-.63,1.75-1.03,2.64-.9,1.69-1.5,2.42-1.34,1.32-2.23,1.76-1.96.66-3.22.66c-2.03,0-3.81-.53-5.34-1.61-1.53-1.07-2.73-2.58-3.6-4.52-.87-1.94-1.31-4.23-1.31-6.86,0-2.4.42-4.5,1.26-6.28s2.03-3.16,3.56-4.12c1.53-.96,3.34-1.38,5.42-1.26v9.48c-.8,0-1.39.25-1.78.75-.38.5-.58,1.1-.58,1.78,0,.43.06.82.17,1.16.11.34.29.61.53.82.24.2.55.3.92.3.43,0,.79-.22,1.07-.67s.55-1.04.79-1.78.49-1.55.75-2.42.58-1.75.97-2.62c.38-.87.87-1.68,1.46-2.42s1.31-1.34,2.17-1.78,1.92-.66,3.17-.66c2.23,0,4.17.55,5.83,1.67,1.66,1.11,2.95,2.67,3.86,4.67.91,2,1.37,4.33,1.37,6.99Z"/><polygon class="cls-1" points="30.45 16.69 20.46 19.07 22.86 21.36 30.45 22.99 30.45 32.81 .51 26.42 .51 16.6 4.11 17.37 11.92 19.95 5.36 14.76 .51 10.64 .51 0 12.38 11.35 30.45 6.31 30.45 16.69"/></g></svg>