<?xml version="1.0" encoding="UTF-8"?><svg id="Layer_2" xmlns="http://www.w3.org/2000/svg" viewBox="0 0 452.32 888.05"><defs><style>.cls-1{fill:#fff;stroke:#f3f3f3;stroke-miterlimit:10;stroke-width:10px;}</style></defs><g id="Layer_1-2"><path class="cls-1" d="M8.45,819.75c0-6.2.98-11.62,2.94-16.25,1.96-4.63,4.61-8.47,7.95-11.5,3.34-3.03,7.12-5.32,11.34-6.85,4.22-1.53,8.6-2.3,13.13-2.3,4.84,0,9.43.78,13.76,2.35,4.34,1.57,8.2,3.9,11.57,7,3.38,3.1,6.05,6.95,8,11.55,1.96,4.6,2.94,9.93,2.94,16v21.5c.08.07.11.12.11.15s.04.05.12.05h14.51v41.6H8.45v-63.3ZM55.1,832.05c0-2-.4-3.68-1.21-5.05-.81-1.37-1.84-2.38-3.11-3.05-1.27-.67-2.55-1-3.86-1-1.38,0-2.67.33-3.86,1-1.19.67-2.17,1.67-2.94,3-.77,1.33-1.15,3.03-1.15,5.1v9.2c0,.07.02.12.06.15.04.03.1.05.17.05h15.78c0-.07.04-.13.12-.2v-9.2Z"/><path class="cls-1" d="M60.74,738.55c.08,0,.13-.02.17-.05.04-.03.06-.08.06-.15v-39h33.86v80.7H8.45v-41.5h52.28Z"/><path class="cls-1" d="M8.45,614.75c4.76-1.2,9.54-2.38,14.34-3.55,4.8-1.17,9.6-2.33,14.4-3.5,4.8-1.17,9.6-2.35,14.4-3.55,4.8-1.2,9.6-2.38,14.4-3.55,4.8-1.17,9.6-2.33,14.4-3.5,4.8-1.17,9.62-2.35,14.45-3.55v44.6l-11.29,1.7v13.6l11.29,1.7v42.7c-4.84-1.2-9.65-2.38-14.45-3.55-4.8-1.17-9.6-2.33-14.4-3.5-4.8-1.17-9.6-2.33-14.4-3.5-4.8-1.17-9.6-2.33-14.4-3.5-4.8-1.17-9.6-2.33-14.4-3.5-4.8-1.17-9.58-2.32-14.34-3.45v-62.1ZM75.48,652.25v-11.1c0-.07-.04-.1-.12-.1-3.76.53-7.08,1.02-9.96,1.45s-5.95.88-9.21,1.35c-3.26.47-6.35.9-9.27,1.3-2.92.4-6.22.9-9.9,1.5v.1c3.69.53,6.99,1.02,9.9,1.45,2.92.43,6.01.88,9.27,1.35,3.26.47,6.33.9,9.21,1.3s6.2.87,9.96,1.4h.12Z"/><path class="cls-1" d="M8.45,501.95h35.01v24.1c.08.07.12.12.12.15,0,.04.04.05.12.05h51.13v41.5h-51.13c-.08,0-.13.02-.17.05-.04.03-.06.08-.06.15v24.1H8.45v-90.1Z"/><path class="cls-1" d="M10.99,414.05c3.99-8.13,9.48-14.23,16.47-18.3,6.99-4.07,15.01-6.1,24.07-6.1,4.91,0,9.66.63,14.22,1.9,4.57,1.27,8.83,3.27,12.78,6,3.95,2.73,7.41,6.27,10.36,10.6,2.96,4.33,5.26,9.52,6.91,15.55,1.65,6.03,2.48,13.02,2.48,20.95,0,5.67-.44,10.85-1.32,15.55-.88,4.7-2.11,8.95-3.69,12.75s-3.47,7.15-5.7,10.05c-2.23,2.9-4.7,5.4-7.43,7.5-2.72,2.1-5.62,3.83-8.69,5.2-3.07,1.37-6.29,2.37-9.67,3-3.38.63-6.79.95-10.25.95-4.53,0-8.83-.52-12.9-1.55-4.07-1.03-7.83-2.57-11.29-4.6-3.45-2.03-6.54-4.57-9.27-7.6-2.72-3.03-5.07-6.58-7.03-10.65-1.96-4.07-3.45-8.65-4.49-13.75-1.04-5.1-1.55-10.71-1.55-16.85,0-12.27,2-22.47,5.99-30.6ZM42.49,450.5c.58,1.63,1.34,2.93,2.3,3.9.96.97,2.04,1.67,3.22,2.1,1.19.43,2.4.65,3.63.65,1.61,0,3.19-.4,4.72-1.2,1.54-.8,2.8-2.13,3.8-4,1-1.87,1.5-4.33,1.5-7.4,0-1.8-.19-3.38-.58-4.75-.38-1.37-.9-2.53-1.55-3.5-.65-.97-1.42-1.77-2.3-2.4-.88-.63-1.8-1.08-2.76-1.35-.96-.27-1.94-.4-2.94-.4-1.15,0-2.3.22-3.45.65s-2.21,1.12-3.17,2.05c-.96.93-1.75,2.2-2.36,3.8-.61,1.6-.92,3.57-.92,5.9s.29,4.32.86,5.95Z"/><path class="cls-1" d="M8.45,327.55v-38.5h86.37v46.3l-41.46,12.6c-.08,0-.12.02-.12.05v.1s.04.05.12.05h41.46v38.5H8.45v-44.8l47.79-14.1v-.15s-.04-.05-.12-.05H8.45Z"/><path class="cls-1" d="M94.83,285.05H8.45v-41.5h86.37v41.5Z"/><path class="cls-1" d="M42.77,187.35c0-10,.5-18.37,1.5-25.1,1-6.73,2.55-12.1,4.66-16.1,2.11-4,4.8-6.87,8.06-8.6,3.26-1.73,7.12-2.6,11.57-2.6,4.84,0,9.12,1.35,12.84,4.05,3.72,2.7,6.83,6.47,9.33,11.3,2.5,4.83,4.38,10.43,5.64,16.8,1.27,6.37,1.9,13.22,1.9,20.55,0,8.13-.69,15.54-2.07,22.2-1.38,6.67-3.51,12.33-6.39,17-2.88,4.67-6.58,8.15-11.11,10.45-4.53,2.3-9.94,3.22-16.24,2.75l-3.34-42.7c2.3.53,4.22.38,5.76-.45,1.54-.83,2.69-2.15,3.45-3.95.77-1.8,1.15-3.8,1.15-6,0-1.33-.12-2.55-.35-3.65-.23-1.1-.58-2.08-1.04-2.95-.46-.87-1.05-1.53-1.78-2-.73-.47-1.55-.7-2.48-.7-1.84,0-3.03.82-3.57,2.45-.54,1.63-.81,4.02-.81,7.15v2.5c0,9.87-.59,18.07-1.78,24.6-1.19,6.53-2.86,11.7-5.01,15.5-2.15,3.8-4.7,6.5-7.66,8.1-2.95,1.6-6.28,2.4-9.96,2.4-3.92,0-7.47-.9-10.65-2.7-3.18-1.8-5.99-4.35-8.41-7.65-2.42-3.3-4.43-7.17-6.05-11.6-1.61-4.43-2.84-9.3-3.68-14.6-.84-5.3-1.27-10.85-1.27-16.65,0-8.2.85-15.55,2.53-22.05,1.69-6.5,4.11-11.97,7.26-16.4,3.15-4.43,6.91-7.62,11.29-9.55,4.38-1.93,9.29-2.4,14.74-1.4l2.19,41.3c-2.23-.73-4.05-.7-5.47.1-1.42.8-2.46,2.05-3.11,3.75-.65,1.7-.98,3.62-.98,5.75,0,1.33.13,2.54.4,3.6.27,1.07.65,1.98,1.15,2.75.5.77,1.09,1.37,1.79,1.8.69.43,1.42.65,2.19.65.92,0,1.67-.27,2.25-.8.58-.53.98-1.35,1.21-2.45.23-1.1.35-2.55.35-4.35v-2.5Z"/><path class="cls-1" d="M94.83,131.75H8.45v-41.5h86.37v41.5ZM94.83,75.75l-43.19,14.5c-3.61-1.33-7.22-2.63-10.83-3.9-3.61-1.27-7.2-2.55-10.77-3.85s-7.16-2.6-10.77-3.9c-3.61-1.3-7.22-2.58-10.83-3.85V29.75c2.69,1.13,5.8,2.47,9.33,4,3.53,1.53,7.1,3.08,10.71,4.65,3.61,1.57,6.95,3.02,10.02,4.35,3.07,1.33,6.49,2.83,10.25,4.5,4.38-1.73,8.33-3.3,11.86-4.7,3.53-1.4,7.35-2.93,11.46-4.6,4.11-1.67,8.16-3.3,12.15-4.9,3.99-1.6,7.53-3.03,10.6-4.3v47Z"/><path class="cls-1" d="M329.82,819.75c0-6.2-.98-11.62-2.94-16.25-1.96-4.63-4.61-8.47-7.95-11.5-3.34-3.03-7.12-5.32-11.34-6.85-4.22-1.53-8.6-2.3-13.13-2.3-4.84,0-9.43.78-13.76,2.35-4.34,1.57-8.2,3.9-11.57,7-3.38,3.1-6.05,6.95-8,11.55-1.96,4.6-2.94,9.93-2.94,16v21.5c-.08.07-.11.12-.11.15s-.04.05-.12.05h-14.51v41.6h86.37v-63.3ZM283.18,832.05c0-2,.4-3.68,1.21-5.05.81-1.37,1.84-2.38,3.11-3.05,1.27-.67,2.55-1,3.86-1,1.38,0,2.67.33,3.86,1,1.19.67,2.17,1.67,2.94,3,.77,1.33,1.15,3.03,1.15,5.1v9.2c0,.07-.02.12-.06.15-.04.03-.1.05-.17.05h-15.78c0-.07-.04-.13-.12-.2v-9.2Z"/><path class="cls-1" d="M277.54,738.55c-.08,0-.13-.02-.17-.05-.04-.03-.06-.08-.06-.15v-39h-33.86v80.7h86.37v-41.5h-52.28Z"/><path class="cls-1" d="M329.82,614.75c-4.76-1.2-9.54-2.38-14.34-3.55-4.8-1.17-9.6-2.33-14.4-3.5-4.8-1.17-9.6-2.35-14.4-3.55-4.8-1.2-9.6-2.38-14.4-3.55-4.8-1.17-9.6-2.33-14.4-3.5-4.8-1.17-9.62-2.35-14.45-3.55v44.6l11.29,1.7v13.6l-11.29,1.7v42.7c4.84-1.2,9.65-2.38,14.45-3.55,4.8-1.17,9.6-2.33,14.4-3.5,4.8-1.17,9.6-2.33,14.4-3.5,4.8-1.17,9.6-2.33,14.4-3.5,4.8-1.17,9.6-2.33,14.4-3.5,4.8-1.17,9.58-2.32,14.34-3.45v-62.1ZM262.8,652.25v-11.1c0-.07.04-.1.12-.1,3.76.53,7.08,1.02,9.96,1.45s5.95.88,9.21,1.35c3.26.47,6.35.9,9.27,1.3,2.92.4,6.22.9,9.9,1.5v.1c-3.69.53-6.99,1.02-9.9,1.45-2.92.43-6.01.88-9.27,1.35-3.26.47-6.33.9-9.21,1.3s-6.2.87-9.96,1.4h-.12Z"/><path class="cls-1" d="M329.82,501.95h-35.01v24.1c-.08.07-.12.12-.12.15,0,.04-.04.05-.12.05h-51.13v41.5h51.13c.08,0,.13.02.17.05.04.03.06.08.06.15v24.1h35.01v-90.1Z"/><path class="cls-1" d="M327.29,414.05c-3.99-8.13-9.48-14.23-16.47-18.3-6.99-4.07-15.01-6.1-24.07-6.1-4.91,0-9.66.63-14.22,1.9-4.57,1.27-8.83,3.27-12.78,6-3.95,2.73-7.41,6.27-10.36,10.6-2.96,4.33-5.26,9.52-6.91,15.55-1.65,6.03-2.48,13.02-2.48,20.95,0,5.67.44,10.85,1.32,15.55.88,4.7,2.11,8.95,3.69,12.75s3.47,7.15,5.7,10.05c2.23,2.9,4.7,5.4,7.43,7.5,2.72,2.1,5.62,3.83,8.69,5.2,3.07,1.37,6.29,2.37,9.67,3,3.38.63,6.79.95,10.25.95,4.53,0,8.83-.52,12.9-1.55,4.07-1.03,7.83-2.57,11.29-4.6,3.45-2.03,6.54-4.57,9.27-7.6,2.72-3.03,5.07-6.58,7.03-10.65,1.96-4.07,3.45-8.65,4.49-13.75,1.04-5.1,1.55-10.71,1.55-16.85,0-12.27-2-22.47-5.99-30.6ZM295.79,450.5c-.58,1.63-1.34,2.93-2.3,3.9-.96.97-2.04,1.67-3.22,2.1-1.19.43-2.4.65-3.63.65-1.61,0-3.19-.4-4.72-1.2-1.54-.8-2.8-2.13-3.8-4-1-1.87-1.5-4.33-1.5-7.4,0-1.8.19-3.38.58-4.75.38-1.37.9-2.53,1.55-3.5.65-.97,1.42-1.77,2.3-2.4.88-.63,1.8-1.08,2.76-1.35.96-.27,1.94-.4,2.94-.4,1.15,0,2.3.22,3.45.65s2.21,1.12,3.17,2.05c.96.93,1.75,2.2,2.36,3.8.61,1.6.92,3.57.92,5.9s-.29,4.32-.86,5.95Z"/><path class="cls-1" d="M329.82,327.55v-38.5h-86.37v46.3l41.46,12.6c.08,0,.12.02.12.05v.1s-.04.05-.12.05h-41.46v38.5h86.37v-44.8l-47.79-14.1v-.15s.04-.05.12-.05h47.68Z"/><path class="cls-1" d="M243.45,285.05h86.37v-41.5h-86.37v41.5Z"/><path class="cls-1" d="M295.5,187.35c0-10-.5-18.37-1.5-25.1-1-6.73-2.55-12.1-4.66-16.1-2.11-4-4.8-6.87-8.06-8.6-3.26-1.73-7.12-2.6-11.57-2.6-4.84,0-9.12,1.35-12.84,4.05-3.72,2.7-6.83,6.47-9.33,11.3-2.5,4.83-4.38,10.43-5.64,16.8-1.27,6.37-1.9,13.22-1.9,20.55,0,8.13.69,15.54,2.07,22.2,1.38,6.67,3.51,12.33,6.39,17,2.88,4.67,6.58,8.15,11.11,10.45,4.53,2.3,9.94,3.22,16.24,2.75l3.34-42.7c-2.3.53-4.22.38-5.76-.45-1.54-.83-2.69-2.15-3.45-3.95-.77-1.8-1.15-3.8-1.15-6,0-1.33.12-2.55.35-3.65.23-1.1.58-2.08,1.04-2.95.46-.87,1.05-1.53,1.78-2,.73-.47,1.55-.7,2.48-.7,1.84,0,3.03.82,3.57,2.45.54,1.63.81,4.02.81,7.15v2.5c0,9.87.59,18.07,1.78,24.6,1.19,6.53,2.86,11.7,5.01,15.5,2.15,3.8,4.7,6.5,7.66,8.1,2.95,1.6,6.28,2.4,9.96,2.4,3.92,0,7.47-.9,10.65-2.7,3.18-1.8,5.99-4.35,8.41-7.65,2.42-3.3,4.43-7.17,6.05-11.6,1.61-4.43,2.84-9.3,3.68-14.6.84-5.3,1.27-10.85,1.27-16.65,0-8.2-.85-15.55-2.53-22.05-1.69-6.5-4.11-11.97-7.26-16.4-3.15-4.43-6.91-7.62-11.29-9.55-4.38-1.93-9.29-2.4-14.74-1.4l-2.19,41.3c2.23-.73,4.05-.7,5.47.1,1.42.8,2.46,2.05,3.11,3.75.65,1.7.98,3.62.98,5.75,0,1.33-.13,2.54-.4,3.6-.27,1.07-.65,1.98-1.15,2.75-.5.77-1.09,1.37-1.79,1.8-.69.43-1.42.65-2.19.65-.92,0-1.67-.27-2.25-.8-.58-.53-.98-1.35-1.21-2.45-.23-1.1-.35-2.55-.35-4.35v-2.5Z"/><path class="cls-1" d="M243.45,131.75h86.37v-41.5h-86.37v41.5ZM243.45,75.75l43.19,14.5c3.61-1.33,7.22-2.63,10.83-3.9,3.61-1.27,7.2-2.55,10.77-3.85s7.16-2.6,10.77-3.9c3.61-1.3,7.22-2.58,10.83-3.85V29.75c-2.69,1.13-5.8,2.47-9.33,4-3.53,1.53-7.1,3.08-10.71,4.65-3.61,1.57-6.95,3.02-10.02,4.35-3.07,1.33-6.49,2.83-10.25,4.5-4.38-1.73-8.33-3.3-11.86-4.7-3.53-1.4-7.35-2.93-11.46-4.6-4.11-1.67-8.16-3.3-12.15-4.9-3.99-1.6-7.53-3.03-10.6-4.3v47Z"/><path class="cls-1" d="M208.87,5c-4.07,0-8.16,0-12.26,0h-12.38c-5.14,0-10.29,0-15.43,0s-10.29,0-15.43,0c-5.14,0-10.29,0-15.43,0-5.14,0-10.29,0-15.43,0v41.6h14.51c.08,0,.12.02.12.05s.04.08.11.15v21.5c0,6.07.98,11.4,2.94,16,1.96,4.6,4.62,8.45,8,11.55,3.38,3.1,7.24,5.43,11.57,7,4.34,1.57,8.93,2.35,13.76,2.35,4.53,0,8.91-.77,13.13-2.3,4.22-1.53,8-3.82,11.34-6.85,3.34-3.03,5.99-6.87,7.95-11.5,1.96-4.63,2.94-10.05,2.94-16.25V5ZM162.23,46.8c.08-.07.12-.13.12-.2h15.78c.08,0,.13.02.17.05.04.03.06.08.06.15v9.2c0,2.07-.39,3.77-1.15,5.1-.77,1.33-1.75,2.33-2.94,3-1.19.67-2.48,1-3.86,1-1.31,0-2.59-.33-3.86-1-1.27-.67-2.3-1.68-3.11-3.05-.81-1.37-1.21-3.05-1.21-5.05v-9.2Z"/><path class="cls-1" d="M169.66,149.5c4.34,0,8.69,0,13.07,0s8.73,0,13.07,0c4.34,0,8.7,0,13.07,0v-41.5c-4.84,0-9.69,0-14.57,0s-9.73,0-14.57,0h-14.28c-4.76,0-9.54,0-14.34,0s-9.58,0-14.34,0-9.52,0-14.28,0v80.7h33.86v-39c0-.07.02-.12.06-.15.04-.03.1-.05.17-.05,4.38,0,8.73,0,13.07,0Z"/><path class="cls-1" d="M208.87,211.2c-4.76-1.13-9.54-2.28-14.34-3.45-4.8-1.17-9.6-2.33-14.4-3.5-4.8-1.17-9.6-2.33-14.4-3.5-4.8-1.17-9.6-2.33-14.4-3.5-4.8-1.17-9.6-2.33-14.4-3.5-4.8-1.17-9.62-2.35-14.45-3.55v42.7s11.29,1.7,11.29,1.7v.6c0,.2,0,.4,0,.6v11c0,.27,0,.5,0,.7v.7s-11.29,1.7-11.29,1.7v44.6c4.84-1.2,9.65-2.38,14.45-3.55,4.8-1.17,9.6-2.33,14.4-3.5,4.8-1.17,9.6-2.35,14.4-3.55,4.8-1.2,9.6-2.38,14.4-3.55,4.8-1.17,9.6-2.33,14.4-3.5,4.8-1.17,9.58-2.35,14.34-3.55v-62.1ZM141.96,235.8c3.76.53,7.08,1,9.96,1.4s5.95.83,9.21,1.3c3.26.47,6.35.92,9.27,1.35,2.92.43,6.22.92,9.9,1.45v.1c-3.69.6-6.99,1.1-9.9,1.5-2.92.4-6.01.83-9.27,1.3-3.26.47-6.33.92-9.21,1.35s-6.2.92-9.96,1.45c-.08,0-.12-.03-.12-.1v-11s0-.1,0-.1h.12Z"/><path class="cls-1" d="M208.87,296h-35.01v24.1c0,.07-.02.12-.06.15-.04.03-.1.05-.17.05-5.68,0-11.36,0-17.04,0s-11.36,0-17.04,0-11.36,0-17.04,0v41.5c3.38,0,6.77,0,10.19,0,3.41,0,6.83,0,10.25,0s6.83,0,10.25,0c3.42,0,6.83,0,10.25,0h10.19c.08,0,.12.02.12.05,0,.03.04.08.12.15v24.1h35.01v-90.1Z"/><path class="cls-1" d="M212.33,443.4c0-6.13-.52-11.75-1.55-16.85-1.04-5.1-2.53-9.68-4.49-13.75-1.96-4.07-4.3-7.62-7.03-10.65-2.73-3.03-5.82-5.57-9.27-7.6-3.45-2.04-7.22-3.57-11.29-4.6-4.07-1.03-8.37-1.55-12.9-1.55-3.45,0-6.87.32-10.25.95-3.38.63-6.6,1.63-9.67,3-3.07,1.37-5.97,3.1-8.69,5.2-2.73,2.1-5.2,4.6-7.43,7.5-2.23,2.9-4.13,6.25-5.7,10.05s-2.8,8.05-3.69,12.75c-.88,4.7-1.32,9.88-1.32,15.55,0,7.93.83,14.92,2.48,20.95,1.65,6.03,3.95,11.22,6.91,15.55,2.96,4.33,6.41,7.87,10.36,10.6,3.95,2.73,8.21,4.73,12.78,6,4.57,1.27,9.31,1.9,14.22,1.9,9.06,0,17.08-2.03,24.07-6.1,6.99-4.07,12.48-10.17,16.47-18.3,3.99-8.13,5.99-18.33,5.99-30.6ZM175.7,443.5c0,2.33-.31,4.3-.92,5.9-.62,1.6-1.4,2.87-2.36,3.8-.96.93-2.02,1.62-3.17,2.05s-2.3.65-3.45.65c-1,0-1.98-.13-2.94-.4-.96-.27-1.88-.72-2.76-1.35-.88-.63-1.65-1.43-2.3-2.4-.65-.97-1.17-2.13-1.55-3.5-.38-1.37-.58-2.95-.58-4.75,0-3.07.5-5.53,1.5-7.4,1-1.87,2.26-3.2,3.8-4,1.54-.8,3.11-1.2,4.72-1.2,1.23,0,2.44.22,3.63.65,1.19.43,2.26,1.13,3.22,2.1.96.97,1.73,2.27,2.3,3.9.58,1.63.86,3.62.86,5.95Z"/><path class="cls-1" d="M161.19,560.5c-.08,0-.12-.02-.12-.05v-.15s47.79-14.1,47.79-14.1v-44.8h-17.27c-5.76,0-11.52,0-17.27,0s-11.52,0-17.27,0h-17.27c-5.76,0-11.52,0-17.27,0v38.5c6.76,0,13.67,0,20.73,0,7.06,0,13.97,0,20.73,0,.08,0,.12.02.12.05v.1s-.04.05-.12.05l-41.46,12.6v46.3c7.22,0,14.41,0,21.59,0,7.18,0,14.38,0,21.59,0h8.69c2.88,0,5.76,0,8.64,0s5.76,0,8.64,0c2.88,0,5.76,0,8.64,0,2.88,0,5.74,0,8.58,0v-38.5h-47.68Z"/><path class="cls-1" d="M122.5,644.5c4.68,0,9.35,0,13.99,0,4.64,0,9.29,0,13.93,0,4.64,0,9.27,0,13.88,0,7.45,0,14.87,0,22.28,0,7.41,0,14.84,0,22.28,0v-41.5c-3.3,0-6.62,0-9.96,0-3.34,0-6.7,0-10.08,0-5.53,0-11.06,0-16.58,0h-16.58c-5.53,0-11.06,0-16.58,0s-11.06,0-16.58,0v41.5Z"/><path class="cls-1" d="M174.55,700.15v-.5c0-.17,0-.33,0-.5v-.5c0-.17,0-.32,0-.45,0-1.8.11-3.25.35-4.35.23-1.1.63-1.92,1.21-2.45.58-.54,1.32-.8,2.25-.8.77,0,1.5.22,2.19.65.69.43,1.28,1.03,1.79,1.8.5.77.88,1.68,1.15,2.75.27,1.07.4,2.27.4,3.6,0,2.13-.33,4.05-.98,5.75-.65,1.7-1.69,2.95-3.11,3.75-1.42.8-3.24.83-5.47.1l2.19,41.3c5.45,1,10.36.53,14.74-1.4,4.38-1.93,8.14-5.12,11.29-9.55,3.15-4.43,5.57-9.9,7.26-16.4,1.69-6.5,2.53-13.85,2.53-22.05,0-5.8-.42-11.35-1.27-16.65-.85-5.3-2.07-10.17-3.68-14.6-1.61-4.43-3.63-8.3-6.05-11.6-2.42-3.3-5.22-5.85-8.41-7.65-3.19-1.8-6.74-2.7-10.65-2.7-3.68,0-7.01.8-9.96,2.4-2.96,1.6-5.51,4.3-7.66,8.1-2.15,3.8-3.82,8.97-5.01,15.5-1.19,6.53-1.78,14.73-1.78,24.6v.45c0,.17,0,.35,0,.55v.55c0,.17,0,.33,0,.5v.45c0,3.13-.27,5.52-.81,7.15-.54,1.63-1.73,2.45-3.57,2.45-.92,0-1.75-.23-2.48-.7-.73-.47-1.32-1.13-1.78-2-.46-.87-.81-1.85-1.04-2.95-.23-1.1-.35-2.32-.35-3.65,0-2.2.38-4.2,1.15-6,.77-1.8,1.92-3.12,3.45-3.95,1.54-.83,3.45-.98,5.76-.45l-3.34-42.7c-6.3-.47-11.71.45-16.24,2.75-4.53,2.3-8.23,5.78-11.11,10.45-2.88,4.67-5.01,10.33-6.39,17-1.38,6.67-2.07,14.07-2.07,22.2,0,7.33.63,14.18,1.9,20.55,1.27,6.37,3.15,11.97,5.64,16.8,2.49,4.83,5.6,8.6,9.33,11.3,3.72,2.7,8,4.05,12.84,4.05,4.45,0,8.31-.87,11.57-2.6,3.26-1.73,5.95-4.6,8.06-8.6,2.11-4,3.67-9.37,4.66-16.1,1-6.73,1.5-15.1,1.5-25.1v-.55Z"/><path class="cls-1" d="M122.5,797.79c7.06,0,14.13,0,21.19,0,7.06,0,14.13,0,21.19,0h.29c.12,0,.21,0,.29,0h.23c.15,0,.31,0,.46,0h.35c3.53,0,7.06,0,10.59,0h10.6c3.53,0,7.06,0,10.59,0,3.53,0,7.06,0,10.6,0v-41.5h-9.44c-3.15,0-6.3,0-9.44,0-5.61,0-11.23,0-16.87,0-5.64,0-11.27,0-16.87,0-5.61,0-11.23,0-16.87,0-5.64,0-11.27,0-16.87,0v41.5ZM122.5,859.29c3.07-1.27,6.6-2.7,10.6-4.3,3.99-1.6,8.04-3.23,12.15-4.9,4.11-1.67,7.93-3.2,11.46-4.6,3.53-1.4,7.49-2.97,11.86-4.7,3.76,1.67,7.18,3.17,10.25,4.5,3.07,1.33,6.41,2.78,10.02,4.35,3.61,1.57,7.18,3.12,10.71,4.65,3.53,1.53,6.64,2.87,9.33,4v-45c-3.61-1.27-7.22-2.55-10.83-3.85-3.61-1.3-7.2-2.6-10.77-3.9-3.57-1.3-7.16-2.58-10.77-3.85-3.61-1.27-7.22-2.57-10.83-3.9l-43.19,14.5v47Z"/><path class="cls-1" d="M357.49,5c4.07,0,8.16,0,12.26,0h12.38c5.14,0,10.29,0,15.43,0s10.29,0,15.43,0c5.14,0,10.29,0,15.43,0,5.14,0,10.29,0,15.43,0v41.6h-14.51c-.08,0-.12.02-.12.05s-.04.08-.11.15v21.5c0,6.07-.98,11.4-2.94,16-1.96,4.6-4.62,8.45-8,11.55-3.38,3.1-7.24,5.43-11.57,7-4.34,1.57-8.93,2.35-13.76,2.35-4.53,0-8.91-.77-13.13-2.3-4.22-1.53-8-3.82-11.34-6.85-3.34-3.03-5.99-6.87-7.95-11.5-1.96-4.63-2.94-10.05-2.94-16.25V5ZM404.13,46.8c-.08-.07-.12-.13-.12-.2h-15.78c-.08,0-.13.02-.17.05-.04.03-.06.08-.06.15v9.2c0,2.07.39,3.77,1.15,5.1.77,1.33,1.75,2.33,2.94,3,1.19.67,2.48,1,3.86,1,1.31,0,2.59-.33,3.86-1,1.27-.67,2.3-1.68,3.11-3.05.81-1.37,1.21-3.05,1.21-5.05v-9.2Z"/><path class="cls-1" d="M396.71,149.5c-4.34,0-8.69,0-13.07,0s-8.73,0-13.07,0c-4.34,0-8.7,0-13.07,0v-41.5c4.84,0,9.69,0,14.57,0s9.73,0,14.57,0h14.28c4.76,0,9.54,0,14.34,0s9.58,0,14.34,0,9.52,0,14.28,0v80.7h-33.86v-39c0-.07-.02-.12-.06-.15-.04-.03-.1-.05-.17-.05-4.38,0-8.73,0-13.07,0Z"/><path class="cls-1" d="M357.49,211.2c4.76-1.13,9.54-2.28,14.34-3.45,4.8-1.17,9.6-2.33,14.4-3.5,4.8-1.17,9.6-2.33,14.4-3.5,4.8-1.17,9.6-2.33,14.4-3.5,4.8-1.17,9.6-2.33,14.4-3.5,4.8-1.17,9.62-2.35,14.45-3.55v42.7s-11.29,1.7-11.29,1.7v.6c0,.2,0,.4,0,.6v11c0,.27,0,.5,0,.7v.7s11.29,1.7,11.29,1.7v44.6c-4.84-1.2-9.65-2.38-14.45-3.55-4.8-1.17-9.6-2.33-14.4-3.5-4.8-1.17-9.6-2.35-14.4-3.55-4.8-1.2-9.6-2.38-14.4-3.55-4.8-1.17-9.6-2.33-14.4-3.5-4.8-1.17-9.58-2.35-14.34-3.55v-62.1ZM424.4,235.8c-3.76.53-7.08,1-9.96,1.4s-5.95.83-9.21,1.3c-3.26.47-6.35.92-9.27,1.35-2.92.43-6.22.92-9.9,1.45v.1c3.69.6,6.99,1.1,9.9,1.5,2.92.4,6.01.83,9.27,1.3,3.26.47,6.33.92,9.21,1.35s6.2.92,9.96,1.45c.08,0,.12-.03.12-.1v-11s0-.1,0-.1h-.12Z"/><path class="cls-1" d="M357.49,296h35.01v24.1c0,.07.02.12.06.15.04.03.1.05.17.05,5.68,0,11.36,0,17.04,0s11.36,0,17.04,0,11.36,0,17.04,0v41.5c-3.38,0-6.77,0-10.19,0-3.41,0-6.83,0-10.25,0s-6.83,0-10.25,0c-3.42,0-6.83,0-10.25,0h-10.19c-.08,0-.12.02-.12.05,0,.03-.04.08-.12.15v24.1h-35.01v-90.1Z"/><path class="cls-1" d="M354.04,443.4c0-6.13.52-11.75,1.55-16.85,1.04-5.1,2.53-9.68,4.49-13.75,1.96-4.07,4.3-7.62,7.03-10.65,2.73-3.03,5.82-5.57,9.27-7.6,3.45-2.04,7.22-3.57,11.29-4.6,4.07-1.03,8.37-1.55,12.9-1.55,3.45,0,6.87.32,10.25.95,3.38.63,6.6,1.63,9.67,3,3.07,1.37,5.97,3.1,8.69,5.2,2.73,2.1,5.2,4.6,7.43,7.5,2.23,2.9,4.13,6.25,5.7,10.05s2.8,8.05,3.69,12.75c.88,4.7,1.32,9.88,1.32,15.55,0,7.93-.83,14.92-2.48,20.95-1.65,6.03-3.95,11.22-6.91,15.55-2.96,4.33-6.41,7.87-10.36,10.6-3.95,2.73-8.21,4.73-12.78,6-4.57,1.27-9.31,1.9-14.22,1.9-9.06,0-17.08-2.03-24.07-6.1-6.99-4.07-12.48-10.17-16.47-18.3-3.99-8.13-5.99-18.33-5.99-30.6ZM390.66,443.5c0,2.33.31,4.3.92,5.9.62,1.6,1.4,2.87,2.36,3.8.96.93,2.02,1.62,3.17,2.05s2.3.65,3.45.65c1,0,1.98-.13,2.94-.4.96-.27,1.88-.72,2.76-1.35.88-.63,1.65-1.43,2.3-2.4.65-.97,1.17-2.13,1.55-3.5.38-1.37.58-2.95.58-4.75,0-3.07-.5-5.53-1.5-7.4-1-1.87-2.26-3.2-3.8-4-1.54-.8-3.11-1.2-4.72-1.2-1.23,0-2.44.22-3.63.65-1.19.43-2.26,1.13-3.22,2.1-.96.97-1.73,2.27-2.3,3.9-.58,1.63-.86,3.62-.86,5.95Z"/><path class="cls-1" d="M405.17,560.5c.08,0,.12-.02.12-.05v-.15s-47.79-14.1-47.79-14.1v-44.8h17.27c5.76,0,11.52,0,17.27,0s11.52,0,17.27,0h17.27c5.76,0,11.52,0,17.27,0v38.5c-6.76,0-13.67,0-20.73,0-7.06,0-13.97,0-20.73,0-.08,0-.12.02-.12.05v.1s.04.05.12.05l41.46,12.6v46.3c-7.22,0-14.41,0-21.59,0-7.18,0-14.38,0-21.59,0h-8.69c-2.88,0-5.76,0-8.64,0s-5.76,0-8.64,0c-2.88,0-5.76,0-8.64,0-2.88,0-5.74,0-8.58,0v-38.5h47.68Z"/><path class="cls-1" d="M443.87,644.5c-4.68,0-9.35,0-13.99,0-4.64,0-9.29,0-13.93,0-4.64,0-9.27,0-13.88,0-7.45,0-14.87,0-22.28,0-7.41,0-14.84,0-22.28,0v-41.5c3.3,0,6.62,0,9.96,0,3.34,0,6.7,0,10.08,0,5.53,0,11.06,0,16.58,0h16.58c5.53,0,11.06,0,16.58,0s11.06,0,16.58,0v41.5Z"/><path class="cls-1" d="M391.81,700.15v-.5c0-.17,0-.33,0-.5v-.5c0-.17,0-.32,0-.45,0-1.8-.11-3.25-.35-4.35-.23-1.1-.63-1.92-1.21-2.45-.58-.54-1.32-.8-2.25-.8-.77,0-1.5.22-2.19.65-.69.43-1.28,1.03-1.79,1.8-.5.77-.88,1.68-1.15,2.75-.27,1.07-.4,2.27-.4,3.6,0,2.13.33,4.05.98,5.75.65,1.7,1.69,2.95,3.11,3.75,1.42.8,3.24.83,5.47.1l-2.19,41.3c-5.45,1-10.36.53-14.74-1.4-4.38-1.93-8.14-5.12-11.29-9.55-3.15-4.43-5.57-9.9-7.26-16.4-1.69-6.5-2.53-13.85-2.53-22.05,0-5.8.42-11.35,1.27-16.65.85-5.3,2.07-10.17,3.68-14.6,1.61-4.43,3.63-8.3,6.05-11.6,2.42-3.3,5.22-5.85,8.41-7.65,3.19-1.8,6.74-2.7,10.65-2.7,3.68,0,7.01.8,9.96,2.4,2.96,1.6,5.51,4.3,7.66,8.1,2.15,3.8,3.82,8.97,5.01,15.5,1.19,6.53,1.78,14.73,1.78,24.6v.45c0,.17,0,.35,0,.55v.55c0,.17,0,.33,0,.5v.45c0,3.13.27,5.52.81,7.15.54,1.63,1.73,2.45,3.57,2.45.92,0,1.75-.23,2.48-.7.73-.47,1.32-1.13,1.78-2,.46-.87.81-1.85,1.04-2.95.23-1.1.35-2.32.35-3.65,0-2.2-.38-4.2-1.15-6-.77-1.8-1.92-3.12-3.45-3.95-1.54-.83-3.45-.98-5.76-.45l3.34-42.7c6.3-.47,11.71.45,16.24,2.75,4.53,2.3,8.23,5.78,11.11,10.45,2.88,4.67,5.01,10.33,6.39,17,1.38,6.67,2.07,14.07,2.07,22.2,0,7.33-.63,14.18-1.9,20.55-1.27,6.37-3.15,11.97-5.64,16.8-2.49,4.83-5.6,8.6-9.33,11.3-3.72,2.7-8,4.05-12.84,4.05-4.45,0-8.31-.87-11.57-2.6-3.26-1.73-5.95-4.6-8.06-8.6-2.11-4-3.67-9.37-4.66-16.1-1-6.73-1.5-15.1-1.5-25.1v-.55Z"/><path class="cls-1" d="M443.87,797.79c-7.06,0-14.13,0-21.19,0-7.06,0-14.13,0-21.19,0h-.29c-.12,0-.21,0-.29,0h-.23c-.15,0-.31,0-.46,0h-.35c-3.53,0-7.06,0-10.59,0h-10.6c-3.53,0-7.06,0-10.59,0-3.53,0-7.06,0-10.6,0v-41.5h9.44c3.15,0,6.3,0,9.44,0,5.61,0,11.23,0,16.87,0,5.64,0,11.27,0,16.87,0,5.61,0,11.23,0,16.87,0,5.64,0,11.27,0,16.87,0v41.5ZM443.87,859.29c-3.07-1.27-6.6-2.7-10.6-4.3-3.99-1.6-8.04-3.23-12.15-4.9-4.11-1.67-7.93-3.2-11.46-4.6-3.53-1.4-7.49-2.97-11.86-4.7-3.76,1.67-7.18,3.17-10.25,4.5-3.07,1.33-6.41,2.78-10.02,4.35-3.61,1.57-7.18,3.12-10.71,4.65-3.53,1.53-6.64,2.87-9.33,4v-45c3.61-1.27,7.22-2.55,10.83-3.85,3.61-1.3,7.2-2.6,10.77-3.9s7.16-2.58,10.77-3.85c3.61-1.27,7.22-2.57,10.83-3.9l43.19,14.5v47Z"/></g></svg>